# xmcd
#
# Track frame offsets:
#	150
#	49891
#	62257
#	95974
#	147886
#	192365
#
# Disc length: 2926 seconds
#
# Revision: 1
# Processed by: cddbd v1.5.2PL0 Copyright (c) Steve Scherf et al.
# Submitted via: audiograbber 1.83.01
#
DISCID=540b6c06
DTITLE=Grateful Dead - 95-05-21 Sam Boyd Silver Bowl, Las Vegas NV
DYEAR=1900
DGENRE=
TTITLE0=Space
TTITLE1=Spanish Jam
TTITLE2=The Other One
TTITLE3=Days Between
TTITLE4=Sugar Magnolia
TTITLE5=Liberty
EXTD=
EXTT0=
EXTT1=
EXTT2=
EXTT3=
EXTT4=
EXTT5=
PLAYORDER=
